M48
;DRILL file {KiCad (5.0.2)-1} date 3/18/2019 10:37:17 PM
;FORMAT={-:-/ absolute / inch / decimal}
FMAT,2
INCH,TZ
T1C0.0157
T2C0.0177
T3C0.0197
T4C0.0591
T5C0.0984
T6C0.1457
%
G90
G05
T1
X7.0351Y-2.5705
X7.1097Y-3.2411
X7.1358Y-3.9818
X7.1839Y-3.3342
X7.2076Y-3.8042
X7.2522Y-2.6342
X7.2535Y-2.8125
X7.2887Y-4.2562
X7.3303Y-4.0725
X7.3366Y-3.8581
X7.4136Y-5.248
X7.5043Y-4.2059
X7.8252Y-4.7208
X7.8454Y-3.334
X7.8967Y-3.5684
X7.9415Y-2.3099
X8.0015Y-5.0471
X8.1361Y-4.1932
X8.1361Y-4.3028
X8.1727Y-4.1932
X8.1751Y-4.2663
X8.1751Y-4.3037
X8.1759Y-4.2273
X8.2116Y-4.1932
X8.2133Y-4.3069
X8.262Y-4.2355
X8.2652Y-4.2728
X8.288Y-4.194
X8.2969Y-4.3069
X8.3196Y-4.1932
X8.3269Y-4.3037
X8.348Y-4.2338
X8.3513Y-4.2712
X8.3968Y-4.1867
X8.4303Y-4.9703
X8.4317Y-4.1859
X8.4333Y-4.2704
X8.4333Y-4.3069
X8.4341Y-4.2265
X8.4682Y-4.1851
X8.4773Y-3.3637
X8.4867Y-3.2861
X8.5796Y-3.3517
X8.5859Y-3.4333
X8.8939Y-2.6929
X8.9279Y-3.508
X8.9297Y-4.4448
X8.973Y-4.3419
X8.9936Y-4.3885
X9.0189Y-4.2739
X9.0868Y-4.0642
X9.0884Y-4.442
X9.1579Y-3.7996
X9.1759Y-3.3299
X9.1918Y-2.6256
X9.2089Y-3.8778
X9.2181Y-2.7747
X9.3054Y-3.33
X9.3085Y-3.4602
T3
X7.5927Y-2.1372
X7.6247Y-2.0599
X7.6247Y-2.2145
X7.702Y-2.0279
X7.702Y-2.2465
X7.7793Y-2.0599
X7.7793Y-2.2145
X7.8113Y-2.1372
X8.5116Y-2.1372
X8.5436Y-2.0599
X8.5436Y-2.2145
X8.6209Y-2.0279
X8.6209Y-2.2465
X8.6982Y-2.0599
X8.6982Y-2.2145
X8.7302Y-2.1372
T4
X7.8175Y-4.1944
X8.6242Y-4.1944
T5
X7.8111Y-5.4919
X8.7482Y-5.3535
X7.5163Y-5.3899
X8.4593Y-5.3535
X9.0073Y-5.3672
X8.1657Y-5.495
T6
X7.702Y-2.1372
X8.6209Y-2.1372
T1
X7.6692Y-5.279G85X7.654Y-5.2831
G05
X7.8536Y-5.2296G85X7.8385Y-5.2336
G05
T2
X7.5957Y-5.2098G85X7.5844Y-5.168
G05
X7.8676Y-5.137G85X7.8563Y-5.0952
G05
T0
M30
